<?xml version="1.0" encoding="utf-8"?>
<!-- Generator: Adobe Illustrator 24.1.0, SVG Export Plug-In . SVG Version: 6.00 Build 0)  -->
<svg version="1.1" id="Layer_1" xmlns="http://www.w3.org/2000/svg" xmlns:xlink="http://www.w3.org/1999/xlink" x="0px" y="0px"
	 viewBox="0 0 254 181" style="enable-background:new 0 0 254 181;" xml:space="preserve">
<style type="text/css">
	.st0{fill:#B2292E;}
</style>
<path class="st0" d="M252.26,73c-0.24-0.29-0.6-0.45-0.98-0.43l-89.63,3.35c-0.48-4.12-0.92-7.93-0.95-8.2
	c0.52-2.39,4.42-19.46,11.14-30.66c5.55-1.59,9.48-6.68,9.48-12.5v-0.12c-0.03-3.49-1.42-6.75-3.91-9.19
	c-2.49-2.45-5.78-3.77-9.27-3.74c-7.16,0.07-12.93,5.91-12.93,13.05v0.12c0.01,1.24,0.25,2.45,0.61,3.63
	c-0.67,0.85-1.91,2.42-1.91,2.42c-1.49-4.25-3.35-9.21-3.45-9.48l-0.97-2.56l-2.04,1.83c-1.1,0.99-5.31,4.82-8.16,8.09
	c-0.12-0.44-0.55-2.11-0.85-3.23c2.23-2.41,3.47-5.52,3.47-8.81v-0.13c-0.03-3.47-1.41-6.72-3.89-9.15
	c-2.48-2.43-5.75-3.75-9.22-3.72c-3.47,0.03-6.71,1.41-9.15,3.89c-2.4,2.45-3.72,5.68-3.72,9.1v0.12c0.03,3.47,1.41,6.72,3.89,9.16
	c0,0,0.1,0.08,0.23,0.2c-0.09,0.69-0.2,1.53-0.41,3.06c-1.88-1.57-4.6-3.66-8.17-6.27l-2.71-1.98l-0.27,3.34
	c0,0.07-0.43,5.36-0.9,9.45c-0.42-0.4-2.39-2.27-3.14-2.98c0.02-0.32,0.07-0.65,0.07-0.97c0-0.04,0-0.08,0-0.12
	c-0.03-3.53-1.44-6.84-3.96-9.31c-2.52-2.48-5.86-3.82-9.39-3.79c-3.54,0.03-6.84,1.44-9.32,3.96c-2.45,2.49-3.79,5.78-3.79,9.26
	v0.13c0.04,3.53,1.44,6.84,3.96,9.32c2.45,2.4,5.66,3.73,9.07,3.78c6.7,9.2,11.99,23.52,12.73,25.58c0.01,0.18,0.09,2.44,0.21,5.42
	L3.12,68.27c-0.46-0.02-0.89,0.18-1.17,0.55c-0.29,0.37-0.37,0.85-0.22,1.3l24.41,75.15c0.25,0.48,0.76,0.77,1.31,0.75l70.1-6.66
	c-1.04,0.64-2.07,1.3-3.05,2l-3.32,2.34l12.34,22.34l4.18-2.29c6.55-3.59,12.18-5.9,17.88-7.25c-0.82,1.59-1.28,3.39-1.28,5.28v0.11
	c0.06,6.37,5.29,11.51,11.66,11.45c3.08-0.03,5.98-1.25,8.14-3.46c2.14-2.18,3.31-5.05,3.31-8.09v-0.11
	c-0.02-2.42-0.78-4.68-2.08-6.54c5.66,0.5,11.05,1.85,17.26,4.23l4.41,1.69l9.68-23.13l-3.63-1.89c-2.28-1.18-4.7-2.23-7.21-3.15
	l12.57-1.2l57.33,9.94c0.47,0.08,0.91-0.22,1.01-0.68l15.77-67.01C252.56,73.6,252.48,73.26,252.26,73z M93.93,35.8
	c-0.79,0.34-1.66,0.54-2.58,0.55c-3.69,0.03-6.7-2.93-6.73-6.61c-0.03-3.69,2.93-6.7,6.61-6.73c3.69-0.03,6.7,2.93,6.74,6.61
	c0.01,1.15-0.27,2.24-0.78,3.19l14.83,14.05l0.75-15.89l10.91,17.31l3.41-25.55c-2.65-0.78-4.59-3.21-4.62-6.11
	c-0.03-3.56,2.83-6.47,6.38-6.5c3.55-0.04,6.46,2.82,6.49,6.38c0.03,2.86-1.82,5.31-4.4,6.17l6.55,24.83l9.75-19.59l3.83,17.72
	l12.45-16.63c-1.08-1.15-1.74-2.68-1.76-4.38c-0.03-3.59,2.85-6.52,6.44-6.56c3.59-0.03,6.52,2.85,6.55,6.44
	c0.04,3.59-2.85,6.52-6.44,6.56c-0.15,0-0.3-0.01-0.46-0.02c-11.79,18.44-14.13,30.14-14.46,37.47l-42.42,1.33
	C110.24,63,106.77,51.96,93.93,35.8z M112.35,81.07l-1.18-7.39l42.37-0.39l-0.69,6.01L112.35,81.07z M147.03,90l-0.9,28.49
	c-0.02,0.85-0.74,1.52-1.59,1.49l-12.9-0.41c-0.66-0.02-1.21-0.46-1.41-1.05l-0.72-0.02l-0.3,9.55l-8.58-0.27
	c-0.85-0.03-1.52-0.74-1.49-1.59l1.17-37.04c0.03-0.85,0.74-1.52,1.59-1.49l23.63,0.75C146.39,88.44,147.06,89.15,147.03,90z
	 M48.39,100.04l-6.78,0.4l1.58,25.2l-9.91,0.59l-1.57-25.21l-6.78,0.4c-0.85,0.05-1.57-0.59-1.62-1.44l-0.7-11.77l26.53-1.57
	l0.7,11.77C49.88,99.27,49.24,99.99,48.39,100.04z M80.14,123.66c-0.05,0.85-0.77,1.49-1.61,1.44l-23.48-1.28
	c-0.84-0.05-1.49-0.77-1.44-1.61L55.26,92c0.05-0.84,0.77-1.49,1.61-1.44l23.48,1.28c0.84,0.05,1.49,0.77,1.44,1.61L80.14,123.66z
	 M89.99,128.57c-0.85,0.03-1.56-0.63-1.59-1.48l-1.32-37.04c-0.03-0.85,0.64-1.56,1.48-1.59l23.63-0.84
	c0.85-0.03,1.56,0.63,1.59,1.48l1.01,28.49c0.03,0.85-0.64,1.56-1.48,1.59l-12.9,0.46c-0.66,0.02-1.24-0.38-1.48-0.96l-0.72,0.03
	l0.34,9.55L89.99,128.57z M135.9,167.48c-3.17,0.03-5.75-2.51-5.78-5.67c-0.02-2.37,1.39-4.41,3.44-5.3l-1.42-3.39
	c0.82-0.09,1.64-0.17,2.47-0.22c1.48-0.1,2.94-0.15,4.37-0.15l-1.04,3.68c2.11,0.83,3.61,2.87,3.63,5.27
	C141.6,164.87,139.06,167.45,135.9,167.48z M170.89,140.15l-5.52,15.48c-9.1-3.49-19.05-5.99-30.7-5.2
	c-11.65,0.79-21.38,4.85-29.92,9.54l-7.58-14.81c9.25-6.52,21.96-11,36.21-11.96C147.64,132.22,160.85,134.93,170.89,140.15z
	 M178.63,120.84l-23.65,1.42c-0.85,0.05-1.58-0.6-1.63-1.45l-1.83-30.44c-0.05-0.85,0.59-1.58,1.44-1.63l23.65-1.42
	c0.85-0.05,1.58,0.6,1.63,1.45l1.19,19.73l-16.87,1.01l0.38,6.34l6.77-0.41l-0.2-3.42l10.1-0.61l0.47,7.79
	C180.13,120.06,179.48,120.79,178.63,120.84z M195.75,101.94c-0.51,0.01-0.91,0.43-0.89,0.94l0.54,19.13l-9.97,0.28l-0.9-31.78
	c-0.02-0.84,0.64-1.55,1.48-1.57l7.45-0.21l0.04,1.33c0.01,0.34,0.29,0.6,0.63,0.59l0.7-0.02c0.32-0.01,0.58-0.26,0.6-0.58
	c0-0.02-0.02-0.88-0.02-0.9c0.01-0.28,0.27-0.48,0.56-0.5l4.67-0.13l0.38,13.26L195.75,101.94z M232.11,98.36l-9.87-0.67l0.14-2.11
	c0.04-0.51-0.35-0.95-0.86-0.98l-5.05-0.35c-0.51-0.03-0.95,0.35-0.99,0.86l-0.38,5.49l16.77,1.15l-1.36,19.9
	c-0.06,0.85-0.79,1.49-1.64,1.43l-23.6-1.61c-0.85-0.06-1.49-0.79-1.43-1.64l0.94-13.77l9.91,0.68l-0.18,2.71
	c-0.04,0.51,0.35,0.95,0.86,0.98l5.04,0.34c0.51,0.04,0.95-0.35,0.99-0.86l0.39-5.68l-16.8-1.15l0.93-13.63
	c0.06-0.85,0.79-1.49,1.64-1.43l23.6,1.62c0.85,0.06,1.49,0.79,1.43,1.64L232.11,98.36z M136.99,100.24l-0.41,12.74
	c-0.01,0.43-0.37,0.76-0.79,0.75l-5.47-0.17c-0.42-0.01-0.76-0.37-0.74-0.79l0.41-12.74c0.01-0.43,0.36-0.76,0.79-0.74l5.46,0.17
	C136.66,99.46,137,99.81,136.99,100.24z M169.14,105.82l-6.77,0.41l-0.31-5.23c-0.05-0.85,0.59-1.58,1.45-1.63l3.69-0.22
	c0.85-0.05,1.58,0.6,1.63,1.45L169.14,105.82z M71.73,97.94l-0.69,12.66c-0.02,0.42-0.38,0.75-0.8,0.72l-5.43-0.29
	c-0.42-0.03-0.74-0.38-0.72-0.81l0.69-12.66c0.02-0.42,0.38-0.74,0.81-0.72l5.43,0.3C71.43,97.16,71.75,97.52,71.73,97.94z
	 M98.7,113.72c-0.43,0.02-0.78-0.32-0.8-0.74l-0.45-12.74c-0.01-0.42,0.32-0.78,0.74-0.8l5.46-0.19c0.43-0.01,0.78,0.32,0.8,0.74
	l0.45,12.74c0.02,0.42-0.32,0.78-0.74,0.8L98.7,113.72z M111.47,142.62l-6.47,2.69l3.22,7.73l2.42-1l-0.79-1.9l4.05-1.69
	c2.1-0.87,2.82-1.66,1.78-4.15C114.63,141.79,113.52,141.77,111.47,142.62z M112.66,146.79l-3.59,1.49l-0.87-2.09l3.59-1.49
	c0.79-0.33,1.1-0.29,1.48,0.63C113.65,146.26,113.38,146.49,112.66,146.79z M120.39,140.13l1.98,8.14l-2.42,0.59l-1.98-8.14
	L120.39,140.13z M144.9,140.06l-6.05-0.11l0.03-1.81l9.82,0.17l-0.03,1.85l-6.35,4.45l6.41,0.11l-0.04,1.97l-10.13-0.18l0.04-2.01
	L144.9,140.06z M135.46,144.29l0.25,1.95l-10.04,1.32l-0.26-1.99l5.57-5.33l-6,0.79l-0.23-1.79l9.74-1.28l0.24,1.84l-5.62,5.33
	L135.46,144.29z M154.84,145.72l5.38,1.33l0.42,1.66l2.75,0.69l-2.54-9.26l-3.37-0.83l-6.58,7l2.75,0.69L154.84,145.72z
	 M158.71,141.61l1.01,3.65l-3.57-0.89L158.71,141.61z M184.55,142.6c2.44,0,4.53,1.9,4.53,4.47c0,2.6-2.09,4.49-4.53,4.49
	c-2.46,0-4.56-1.9-4.56-4.49C179.99,144.49,182.08,142.6,184.55,142.6z M184.55,143.32c-2.08,0-3.69,1.61-3.69,3.75
	c0,2.19,1.61,3.77,3.69,3.77c2.05,0,3.66-1.58,3.66-3.77C188.21,144.93,186.6,143.32,184.55,143.32z M183.59,149.66h-0.79v-5.17
	h1.98c1.23,0,1.84,0.46,1.84,1.48c0,0.93-0.58,1.33-1.36,1.42l1.48,2.27h-0.87l-1.37-2.25h-0.9V149.66z M183.59,146.76h0.94
	c0.97,0,1.28-0.28,1.28-0.84c0-0.5-0.24-0.78-1.15-0.78h-1.08V146.76z"/>
</svg>
